<svg version="1" xmlns="http://www.w3.org/2000/svg" width="346.667" height="346.667" viewBox="0 0 260.000000 260.000000"><path d="M110.5 21.6c-35.1 6-64.5 27.3-79.9 58.1-3.5 6.9-7 16.5-8.1 21.9C19 119 18.7 131 21.4 150c1 7 4.8 18.5 8.7 26.7 12.4 25.5 37.4 47 64.4 55.2 15.3 4.7 36.1 6.3 53.5 4 9.5-1.2 21.3-4.7 30.9-9.1 21.1-9.8 40.6-28.9 50.9-50 14.3-29.3 14.1-68-.5-97.3-9.7-19.5-28.4-38.1-48.1-47.9-6.4-3.2-21.5-8.4-26.8-9.1-2.1-.4-4.8-.9-5.9-1.2-4.1-1.2-30.2-1-38 .3zM137 53.1c14.2.6 29.8 7.5 42.1 18.4 27 24 32.9 66.8 13.3 98.1-16.7 26.9-46.7 39.7-77.7 33.4-14.5-3-25.8-9.2-36.3-19.8-18.4-18.6-25.6-42.7-20.9-69.6 1.5-8.7 2.4-11.4 6.8-20.5 8.5-17.5 27.8-33.5 46.2-38.1 4.6-1.1 19.3-2.9 20.5-2.4.3.1 3 .3 6 .5z"/></svg>